<?xml version="1.0" encoding="utf-8"?>
<!-- Generator: Adobe Illustrator 24.3.0, SVG Export Plug-In . SVG Version: 6.00 Build 0)  -->
<svg version="1.1" id="Layer_1" xmlns="http://www.w3.org/2000/svg" xmlns:xlink="http://www.w3.org/1999/xlink" x="0px" y="0px"
	 viewBox="0 0 512 512" style="enable-background:new 0 0 512 512;" xml:space="preserve">
<style type="text/css">
	.st0{fill:#50575E;}
</style>
<g id="_5owxJ6">
	<path class="st0" d="M430.6,133.6l17,0.8v34.1l-35,1.6v12.6c-0.1,83.6-0.1,167.2-0.2,250.8c0,25.8-22.1,48.7-47.9,48.8
		c-72.5,0.2-145,0.2-217.5,0c-25.6-0.1-47.9-23.1-47.9-48.9c-0.1-83.6-0.2-167.2-0.3-250.8c0-3.9,0-7.9,0-13.2H64.3v-34.8l16.1-1
		c0.4-5.4,0.6-10.7,1.1-16c1.3-12.8,5.7-17.4,18.7-17.8c19.9-0.5,39.8-0.3,59.7-0.4c2.3,0,4.6-0.2,6.8-0.4c1.5-8.7,2.6-17,4.3-25.1
		c4.7-22.5,30.9-46,58.1-44.2c18.5,1.2,37.1,0,55.6,0.2c30.9,0.5,57.1,25.9,58.7,56.9c0.2,3.7,0,7.3,0,12.6c12,0,23.3,0,34.6,0
		c10.5,0,20.9-0.1,31.4,0.2c15.7,0.5,20.8,6,21.1,21.9C430.7,125.2,430.6,128.9,430.6,133.6z M133.8,170c-0.3,2.6-0.5,3.9-0.5,5.2
		c0.3,83.6,0.6,167.2,1,250.8c0.1,18.2,4.3,22.4,22.1,22.4c66.1,0.2,132.2,0.2,198.3,0c18.9-0.1,23-4.5,23-23.6
		c0.3-81.6,0.5-163.2,0.6-244.8c0-3.2-0.3-6.5-0.5-10.1L133.8,170z M306.4,98.9c2.2-22-7.6-33.5-28.5-33.8
		c-15.5-0.2-30.9-0.4-46.4,0.1c-19,0.6-29.3,14-26.2,33.7L306.4,98.9z"/>
	<path class="st0" d="M203,412.9h-33.3V205H203V412.9z"/>
	<path class="st0" d="M272.8,205v207.7h-34.1V205H272.8z"/>
	<path class="st0" d="M309.2,204.8h33.2v207.9h-33.2V204.8z"/>
</g>
</svg>
