<?xml version="1.0" encoding="utf-8"?>
<!-- Generator: Adobe Illustrator 24.3.0, SVG Export Plug-In . SVG Version: 6.00 Build 0)  -->
<svg version="1.1" id="Layer_1" xmlns="http://www.w3.org/2000/svg" xmlns:xlink="http://www.w3.org/1999/xlink" x="0px" y="0px"
	 viewBox="0 0 512 512" style="enable-background:new 0 0 512 512;" xml:space="preserve">
<style type="text/css">
	.st0{fill:#50575E;}
</style>
<g id="_x34_A9FFG.tif">
	<g>
		<path class="st0" d="M30.6,455.2c0-132.6,0-265.3,0-397.9c1.7-8,4.3-15.6,11.5-20.2c4.6-2.9,10.1-4.4,15.2-6.5
			c92.3,0,184.6,0,276.9,0c1,0.3,1.9,0.8,2.9,0.9c17.4,2.5,32.5,9.6,45.1,22.2c25.2,25.3,50.4,50.6,75.8,75.8
			c15.9,15.7,23.6,34.7,23.6,57c-0.1,43.4,0,86.8,0,130.2c0,44.6-0.1,89.2,0,133.8c0,10.6-3.4,19.4-12.1,25.8
			c-6,4.4-12.8,5.2-19.9,5.2c-128.9,0-257.7,0-386.6,0c-1.7,0-3.4,0-5.1-0.1c-12.4-1.1-22-8.5-25.4-19.8
			C31.6,459.4,31.1,457.3,30.6,455.2z M331.2,68.5c0,2.7,0,4.7,0,6.7c0,37.8-0.4,75.5,0.2,113.3c0.3,16.1-11.7,30.5-30.6,30.4
			c-54.7-0.3-109.4-0.1-164.1-0.2c-3.5,0-7.2-0.3-10.6-1.3c-12.5-3.5-20-14.3-20-28.8c0-37.8,0-75.5,0-113.3c0-2.2,0-4.3,0-6.4
			c-12.9,0-24.9,0-37.1,0c0,125,0,249.7,0,374.4c12.4,0,24.5,0,37.1,0c0-2.3,0-4.3,0-6.3c0-37.4,0-74.9,0.1-112.3
			c0-3.7,0.2-7.6,1.2-11.1c3.6-12.8,14.4-20.1,29.3-20.1c79.3,0,158.6,0.2,237.9-0.2c18.9-0.1,32.3,12.8,31.9,31.7
			c-0.7,37.4-0.2,74.9-0.2,112.3c0,2,0,4,0,6.1c12.8,0,24.9,0,37.2,0c0.1-1.8,0.3-3.3,0.3-4.8c0-84.9,0.1-169.9,0-254.8
			c0-9.9-3.6-18.7-10.7-25.8c-26.1-26.1-52.2-52.2-78.3-78.4C348.4,73.3,340.7,70.3,331.2,68.5z M144.2,331.4c0,37.5,0,74.8,0,112
			c74.9,0,149.3,0,224,0c0-37.5,0-74.8,0-112C293.3,331.4,218.8,331.4,144.2,331.4z M293.5,125c0-14.9,0-29.7,0-44.6
			c0-8.6-3.2-11.8-11.7-11.8c-16.9,0-33.8,0-50.7,0c-9.2,0-12.2,3.1-12.2,12.4c0,29.4,0,58.7,0,88.1c0,8.9,3.1,12.1,12,12.1
			c16.9,0,33.8,0,50.7,0c8.8,0,11.9-3.2,11.9-12.1C293.5,154.4,293.5,139.7,293.5,125z"/>
	</g>
</g>
</svg>
