<?xml version="1.0" encoding="utf-8"?>
<!-- Generator: Adobe Illustrator 24.3.0, SVG Export Plug-In . SVG Version: 6.00 Build 0)  -->
<svg version="1.1" id="Layer_1" xmlns="http://www.w3.org/2000/svg" xmlns:xlink="http://www.w3.org/1999/xlink" x="0px" y="0px"
	 viewBox="0 0 512 512" style="enable-background:new 0 0 512 512;" xml:space="preserve">
<style type="text/css">
	.st0{fill:#50575E;}
</style>
<g>
	<path class="st0" d="M61.9,131.2v318.6h318.6v-3.1c0-51.7,0-103.4,0-155.2c0-8.8,5.3-15.4,13.5-16.8c8.8-1.5,17.2,4.3,18.7,13.1
		c0.1,0.7,0.2,1.4,0.2,2.1c0,0.7,0,1.3,0,1.9c0,57.7,0,115.4,0,173.1c0,9-5.2,15.5-13.5,17.1c-1.2,0.2-2.4,0.3-3.7,0.3H46.5
		c-10.2,0-17.2-6.9-17.2-17.1c0-116.4,0-232.8,0-349.2c0-10.4,6.9-17.2,17.3-17.2c57.8,0,115.5,0,173.3,0c8.5,0,15,4.8,16.8,12.4
		c1.8,7.5-1.6,15-8.3,18.2c-2.7,1.2-5.6,1.8-8.5,1.8c-20.5,0.1-41,0.1-61.5,0.1L61.9,131.2L61.9,131.2z"/>
	<path class="st0" d="M139.6,356.1c0.5-2.3,1.1-4.5,1.9-6.7c12.3-29,24.8-57.9,37.2-86.9c1-2.4,2.5-4.6,4.4-6.4
		c73.6-73.7,147.2-147.3,220.8-220.9c7.2-7.2,16.8-7.3,24-0.1c16.4,16.4,32.9,32.7,49.2,49.2c7.5,7.5,7.4,17.1-0.1,24.6
		c-26.6,26.6-53.2,53.2-79.8,79.8c-46.6,46.6-93.2,93.2-139.9,139.7c-2.6,2.5-5.5,4.5-8.8,6c-28.3,12.3-56.7,24.2-85,36.5
		C151.5,376,139.8,367.5,139.6,356.1z M372.2,113.7L213.9,272l26.5,26.6c52.7-52.7,105.5-105.5,158.4-158.4L372.2,113.7z
		 M387.7,97.9c8.9,8.9,18,18,27,27l28.4-28.3l-26.9-27.1L387.7,97.9z M201.5,291.5c-4.8,11.1-9.6,22.3-14.6,34l33.9-14.6
		L201.5,291.5z"/>
</g>
</svg>
